<svg width="9" height="9" viewBox="0 0 9 9" fill="none" xmlns="http://www.w3.org/2000/svg">
<path d="M8.27661 5.59084H5.53982V8.2305C5.53982 8.65552 5.1826 9.00006 4.74194 9.00006C4.30129 9.00006 3.94407 8.65552 3.94407 8.2305V5.59084H1.20727C0.796239 5.54979 0.483887 5.21571 0.483887 4.81715C0.483887 4.41858 0.796239 4.08451 1.20727 4.04345H3.93549V1.41207C3.97805 1.01562 4.32442 0.714355 4.73765 0.714355C5.15088 0.714355 5.49725 1.01562 5.53982 1.41207V4.04345H8.27661C8.68765 4.08451 9 4.41858 9 4.81715C9 5.21571 8.68765 5.54979 8.27661 5.59084Z" fill="white"/>
</svg>
